<!-- Generated by IcoMoon.io -->
<svg version="1.1" xmlns="http://www.w3.org/2000/svg" width="28" height="32" viewBox="0 0 28 32">
<title>logo-11</title>
<path fill="#8e8f99" d="M4.085 0l4.771 4.546-8.856-0.005v22.054h23.149v-8.432l4.766 4.541v-22.703h-23.83zM22.939 17.629l-13.528-12.889h13.528v12.889zM18.739 23.369h-15.076v-14.833h1.066v13.828h14.010v1.004zM6.67 30.68l0.562-1.155h0.462l-0.814 1.529v0.891h-0.421v-0.891l-0.814-1.529h0.464l0.562 1.155zM8.741 29.525h0.1l0.914 2.42h-0.439l-0.196-0.567h-0.937l-0.195 0.567h-0.437l0.911-2.42h0.279zM8.297 31.047h0.709l-0.355-1.027-0.354 1.027zM11.222 30.646c-0.018-0.023-0.036-0.046-0.053-0.068-0.062-0.082-0.11-0.161-0.145-0.238-0.034-0.078-0.052-0.157-0.052-0.239 0-0.126 0.026-0.235 0.078-0.326s0.126-0.161 0.221-0.209c0.095-0.050 0.207-0.075 0.334-0.075 0.123 0 0.229 0.025 0.317 0.075 0.090 0.049 0.158 0.114 0.206 0.194 0.049 0.081 0.073 0.17 0.073 0.266 0 0.076-0.014 0.146-0.042 0.209s-0.066 0.121-0.115 0.173c-0.049 0.052-0.105 0.101-0.17 0.148l-0.168 0.122 0.479 0.566c0.016-0.031 0.030-0.064 0.043-0.098 0.041-0.106 0.062-0.224 0.062-0.354h0.346c0 0.117-0.012 0.229-0.035 0.334-0.022 0.105-0.058 0.203-0.108 0.293-0.020 0.037-0.043 0.073-0.069 0.107l0.355 0.418h-0.464l-0.141-0.165c-0.076 0.058-0.159 0.103-0.248 0.136-0.117 0.042-0.243 0.063-0.376 0.063-0.161 0-0.3-0.029-0.417-0.088s-0.208-0.14-0.273-0.243c-0.063-0.103-0.095-0.221-0.095-0.354 0-0.099 0.021-0.185 0.061-0.259 0.041-0.075 0.097-0.145 0.168-0.209 0.066-0.059 0.14-0.119 0.224-0.178zM11.42 30.889l-0.050 0.036c-0.059 0.048-0.103 0.094-0.131 0.138-0.028 0.043-0.046 0.083-0.055 0.12s-0.013 0.069-0.013 0.096c0 0.071 0.015 0.135 0.045 0.193 0.031 0.058 0.076 0.104 0.135 0.138 0.060 0.033 0.132 0.050 0.218 0.050 0.092 0 0.181-0.020 0.268-0.061 0.043-0.021 0.084-0.047 0.123-0.076l-0.539-0.633zM11.516 30.447l0.148-0.1c0.070-0.047 0.12-0.092 0.15-0.136 0.030-0.045 0.045-0.102 0.045-0.17 0-0.058-0.022-0.111-0.067-0.16s-0.107-0.073-0.188-0.073c-0.056 0-0.104 0.013-0.143 0.040-0.039 0.025-0.068 0.060-0.088 0.103-0.019 0.042-0.028 0.089-0.028 0.141 0 0.050 0.013 0.101 0.038 0.155 0.026 0.052 0.060 0.107 0.105 0.165 0.009 0.012 0.018 0.023 0.028 0.035zM15.75 31.157c-0.013 0.158-0.058 0.3-0.133 0.424-0.075 0.123-0.181 0.22-0.317 0.291s-0.302 0.106-0.497 0.106c-0.15 0-0.284-0.027-0.404-0.080-0.12-0.054-0.222-0.131-0.307-0.229-0.085-0.1-0.151-0.22-0.196-0.361-0.044-0.141-0.067-0.298-0.067-0.472v-0.201c0-0.174 0.023-0.331 0.068-0.472 0.047-0.141 0.113-0.261 0.2-0.361 0.086-0.101 0.19-0.178 0.311-0.231 0.122-0.053 0.259-0.080 0.411-0.080 0.193 0 0.356 0.035 0.489 0.106s0.236 0.169 0.309 0.294c0.074 0.125 0.12 0.269 0.136 0.43h-0.416c-0.011-0.104-0.035-0.193-0.073-0.268-0.037-0.074-0.091-0.131-0.163-0.17-0.072-0.040-0.166-0.060-0.283-0.060-0.095 0-0.178 0.018-0.249 0.053s-0.13 0.087-0.178 0.156c-0.048 0.069-0.084 0.154-0.108 0.254-0.023 0.1-0.035 0.214-0.035 0.342v0.204c0 0.122 0.011 0.233 0.032 0.332 0.022 0.099 0.055 0.183 0.1 0.254 0.045 0.071 0.103 0.126 0.173 0.165s0.154 0.058 0.251 0.058c0.119 0 0.214-0.019 0.288-0.056 0.074-0.038 0.13-0.093 0.168-0.165 0.039-0.073 0.064-0.162 0.076-0.268h0.416zM18.059 30.801v-0.133c0-0.183-0.024-0.346-0.073-0.49-0.048-0.145-0.116-0.269-0.204-0.371-0.089-0.103-0.194-0.181-0.317-0.234-0.123-0.054-0.259-0.081-0.409-0.081-0.148 0-0.284 0.027-0.407 0.081-0.122 0.053-0.228 0.131-0.317 0.234-0.089 0.102-0.157 0.226-0.206 0.371-0.049 0.144-0.073 0.308-0.073 0.49v0.133c0 0.183 0.024 0.347 0.073 0.492 0.050 0.145 0.12 0.269 0.209 0.371s0.196 0.18 0.317 0.234c0.123 0.053 0.259 0.080 0.407 0.080 0.15 0 0.286-0.027 0.409-0.080 0.123-0.054 0.228-0.132 0.316-0.234 0.089-0.102 0.157-0.226 0.204-0.371s0.072-0.309 0.072-0.492zM17.642 30.665v0.136c0 0.135-0.013 0.255-0.040 0.359-0.025 0.104-0.063 0.192-0.113 0.264-0.050 0.071-0.111 0.125-0.183 0.161-0.072 0.035-0.155 0.053-0.248 0.053-0.092 0-0.174-0.018-0.246-0.053-0.072-0.037-0.134-0.090-0.186-0.161-0.051-0.072-0.090-0.16-0.116-0.264s-0.040-0.224-0.040-0.359v-0.136c0-0.135 0.013-0.254 0.040-0.357 0.027-0.104 0.065-0.191 0.115-0.261 0.051-0.071 0.112-0.124 0.184-0.16 0.072-0.037 0.154-0.055 0.246-0.055s0.175 0.018 0.248 0.055c0.073 0.035 0.135 0.089 0.184 0.16 0.051 0.070 0.089 0.157 0.115 0.261 0.027 0.103 0.040 0.222 0.040 0.357z"></path>
</svg>
